<svg xmlns="http://www.w3.org/2000/svg" xmlns:xlink="http://www.w3.org/1999/xlink" width="500" zoomAndPan="magnify" viewBox="0 0 375 374.999991" height="500" preserveAspectRatio="xMidYMid meet" version="1.0"><defs><g/></defs><rect x="-37.5" width="450" fill="#ffffff" y="-37.499999" height="449.999989" fill-opacity="1"/><rect x="-37.5" width="450" fill="#f1efe7" y="-37.499999" height="449.999989" fill-opacity="1"/><g fill="#000000" fill-opacity="1"><g transform="translate(96.56501, 198.743526)"><g><path d="M 30.109375 -23.015625 C 32.566406 -20.335938 33.796875 -17.050781 33.796875 -13.15625 C 33.796875 -9.269531 32.566406 -5.976562 30.109375 -3.28125 C 27.648438 -0.582031 24.523438 0.765625 20.734375 0.765625 C 17.253906 0.765625 14.390625 -0.328125 12.140625 -2.515625 L 12.140625 13.3125 L 3.078125 13.3125 L 3.078125 -26.265625 L 12.03125 -26.265625 L 12.03125 -23.296875 L 12.140625 -23.296875 C 14.390625 -25.785156 17.253906 -27.03125 20.734375 -27.03125 C 24.523438 -27.03125 27.648438 -25.691406 30.109375 -23.015625 Z M 22.40625 -8.703125 C 23.582031 -9.867188 24.171875 -11.351562 24.171875 -13.15625 C 24.171875 -14.96875 23.601562 -16.441406 22.46875 -17.578125 C 21.34375 -18.722656 19.863281 -19.296875 18.03125 -19.296875 C 16.25 -19.296875 14.785156 -18.71875 13.640625 -17.5625 C 12.503906 -16.40625 11.9375 -14.9375 11.9375 -13.15625 C 11.9375 -11.351562 12.523438 -9.867188 13.703125 -8.703125 C 14.878906 -7.546875 16.320312 -6.96875 18.03125 -6.96875 C 19.769531 -6.96875 21.226562 -7.546875 22.40625 -8.703125 Z M 22.40625 -8.703125 "/></g></g></g><g fill="#000000" fill-opacity="1"><g transform="translate(126.719967, 198.743526)"><g><path d="M 5.546875 -3.125 C 2.628906 -5.71875 1.171875 -9.046875 1.171875 -13.109375 C 1.171875 -17.171875 2.691406 -20.503906 5.734375 -23.109375 C 8.773438 -25.722656 12.53125 -27.03125 17 -27.03125 C 21.40625 -27.03125 25.117188 -25.71875 28.140625 -23.09375 C 31.160156 -20.46875 32.671875 -17.140625 32.671875 -13.109375 C 32.671875 -9.078125 31.191406 -5.753906 28.234375 -3.140625 C 25.285156 -0.535156 21.539062 0.765625 17 0.765625 C 12.289062 0.765625 8.472656 -0.53125 5.546875 -3.125 Z M 12.5625 -17.5625 C 11.382812 -16.40625 10.796875 -14.921875 10.796875 -13.109375 C 10.796875 -11.296875 11.359375 -9.816406 12.484375 -8.671875 C 13.617188 -7.535156 15.109375 -6.96875 16.953125 -6.96875 C 18.722656 -6.96875 20.179688 -7.546875 21.328125 -8.703125 C 22.472656 -9.867188 23.046875 -11.335938 23.046875 -13.109375 C 23.046875 -14.921875 22.457031 -16.40625 21.28125 -17.5625 C 20.101562 -18.71875 18.660156 -19.296875 16.953125 -19.296875 C 15.210938 -19.296875 13.75 -18.71875 12.5625 -17.5625 Z M 12.5625 -17.5625 "/></g></g></g><g fill="#000000" fill-opacity="1"><g transform="translate(155.748539, 198.743526)"><g><path d="M 5.546875 -3.125 C 2.628906 -5.71875 1.171875 -9.046875 1.171875 -13.109375 C 1.171875 -17.171875 2.691406 -20.503906 5.734375 -23.109375 C 8.773438 -25.722656 12.53125 -27.03125 17 -27.03125 C 21.40625 -27.03125 25.117188 -25.71875 28.140625 -23.09375 C 31.160156 -20.46875 32.671875 -17.140625 32.671875 -13.109375 C 32.671875 -9.078125 31.191406 -5.753906 28.234375 -3.140625 C 25.285156 -0.535156 21.539062 0.765625 17 0.765625 C 12.289062 0.765625 8.472656 -0.53125 5.546875 -3.125 Z M 12.5625 -17.5625 C 11.382812 -16.40625 10.796875 -14.921875 10.796875 -13.109375 C 10.796875 -11.296875 11.359375 -9.816406 12.484375 -8.671875 C 13.617188 -7.535156 15.109375 -6.96875 16.953125 -6.96875 C 18.722656 -6.96875 20.179688 -7.546875 21.328125 -8.703125 C 22.472656 -9.867188 23.046875 -11.335938 23.046875 -13.109375 C 23.046875 -14.921875 22.457031 -16.40625 21.28125 -17.5625 C 20.101562 -18.71875 18.660156 -19.296875 16.953125 -19.296875 C 15.210938 -19.296875 13.75 -18.71875 12.5625 -17.5625 Z M 12.5625 -17.5625 "/></g></g></g><g fill="#000000" fill-opacity="1"><g transform="translate(184.777111, 198.743526)"><g><path d="M 1.890625 6.453125 L 9.3125 2.8125 C 10.675781 5.070312 13.050781 6.203125 16.4375 6.203125 C 18.007812 6.203125 19.46875 5.695312 20.8125 4.6875 C 22.164062 3.675781 22.84375 2.128906 22.84375 0.046875 L 22.84375 -1.890625 C 21.238281 -0.117188 18.367188 0.765625 14.234375 0.765625 C 10.441406 0.765625 7.316406 -0.570312 4.859375 -3.25 C 2.398438 -5.925781 1.171875 -9.207031 1.171875 -13.09375 C 1.171875 -16.988281 2.398438 -20.285156 4.859375 -22.984375 C 7.316406 -25.679688 10.441406 -27.03125 14.234375 -27.03125 C 17.609375 -27.03125 20.425781 -25.988281 22.6875 -23.90625 L 22.84375 -23.90625 L 22.84375 -26.265625 L 31.90625 -26.265625 L 31.90625 0.71875 C 31.90625 4.988281 30.488281 8.28125 27.65625 10.59375 C 24.820312 12.914062 21.082031 14.078125 16.4375 14.078125 C 8.925781 14.078125 4.078125 11.535156 1.890625 6.453125 Z M 12.5625 -17.5625 C 11.382812 -16.40625 10.796875 -14.921875 10.796875 -13.109375 C 10.796875 -11.296875 11.359375 -9.816406 12.484375 -8.671875 C 13.617188 -7.535156 15.109375 -6.96875 16.953125 -6.96875 C 18.722656 -6.96875 20.179688 -7.546875 21.328125 -8.703125 C 22.472656 -9.867188 23.046875 -11.335938 23.046875 -13.109375 C 23.046875 -14.921875 22.457031 -16.40625 21.28125 -17.5625 C 20.101562 -18.71875 18.660156 -19.296875 16.953125 -19.296875 C 15.210938 -19.296875 13.75 -18.71875 12.5625 -17.5625 Z M 12.5625 -17.5625 "/></g></g></g><g fill="#000000" fill-opacity="1"><g transform="translate(214.932068, 198.743526)"><g><path d="M 3.078125 0 L 3.078125 -44.03125 L 12.140625 -44.03125 L 12.140625 0 Z M 3.078125 0 "/></g></g></g><g fill="#000000" fill-opacity="1"><g transform="translate(225.324104, 198.743526)"><g><path d="M 29.640625 -11.875 L 10.59375 -11.875 C 10.59375 -10.03125 11.191406 -8.664062 12.390625 -7.78125 C 13.585938 -6.894531 14.882812 -6.453125 16.28125 -6.453125 C 17.75 -6.453125 18.910156 -6.644531 19.765625 -7.03125 C 20.617188 -7.425781 21.59375 -8.207031 22.6875 -9.375 L 29.234375 -6.09375 C 26.503906 -1.519531 21.960938 0.765625 15.609375 0.765625 C 11.648438 0.765625 8.253906 -0.585938 5.421875 -3.296875 C 2.585938 -6.015625 1.171875 -9.285156 1.171875 -13.109375 C 1.171875 -16.929688 2.585938 -20.207031 5.421875 -22.9375 C 8.253906 -25.664062 11.648438 -27.03125 15.609375 -27.03125 C 19.773438 -27.03125 23.164062 -25.828125 25.78125 -23.421875 C 28.394531 -21.015625 29.703125 -17.578125 29.703125 -13.109375 C 29.703125 -12.492188 29.679688 -12.082031 29.640625 -11.875 Z M 10.859375 -16.890625 L 20.84375 -16.890625 C 20.632812 -18.253906 20.09375 -19.300781 19.21875 -20.03125 C 18.351562 -20.769531 17.238281 -21.140625 15.875 -21.140625 C 14.375 -21.140625 13.175781 -20.75 12.28125 -19.96875 C 11.394531 -19.1875 10.921875 -18.160156 10.859375 -16.890625 Z M 10.859375 -16.890625 "/></g></g></g><g fill="#000000" fill-opacity="1"><g transform="translate(251.383123, 198.743526)"><g/></g></g><g fill="#000000" fill-opacity="1"><g transform="translate(260.546384, 198.743526)"><g><path d="M 8.90625 -10.953125 C 10.539062 -10.953125 11.929688 -10.378906 13.078125 -9.234375 C 14.222656 -8.097656 14.796875 -6.707031 14.796875 -5.0625 C 14.796875 -3.457031 14.222656 -2.082031 13.078125 -0.9375 C 11.929688 0.195312 10.539062 0.765625 8.90625 0.765625 C 7.300781 0.765625 5.925781 0.195312 4.78125 -0.9375 C 3.644531 -2.082031 3.078125 -3.457031 3.078125 -5.0625 C 3.078125 -6.707031 3.644531 -8.097656 4.78125 -9.234375 C 5.925781 -10.378906 7.300781 -10.953125 8.90625 -10.953125 Z M 8.90625 -10.953125 "/></g></g></g><g fill="#000000" fill-opacity="1"><g transform="translate(142.860947, 224.841415)"><g><path d="M 3.046875 0.109375 C 2.546875 0.109375 2.101562 0.0390625 1.71875 -0.09375 C 1.332031 -0.238281 0.960938 -0.472656 0.609375 -0.796875 C 0.460938 -0.921875 0.390625 -1.0625 0.390625 -1.21875 C 0.390625 -1.34375 0.4375 -1.453125 0.53125 -1.546875 C 0.632812 -1.648438 0.75 -1.703125 0.875 -1.703125 C 0.988281 -1.703125 1.085938 -1.664062 1.171875 -1.59375 C 1.453125 -1.332031 1.738281 -1.140625 2.03125 -1.015625 C 2.320312 -0.898438 2.648438 -0.84375 3.015625 -0.84375 C 3.453125 -0.84375 3.816406 -0.941406 4.109375 -1.140625 C 4.410156 -1.335938 4.5625 -1.585938 4.5625 -1.890625 C 4.5625 -2.253906 4.414062 -2.53125 4.125 -2.71875 C 3.832031 -2.914062 3.382812 -3.082031 2.78125 -3.21875 C 2.070312 -3.363281 1.523438 -3.597656 1.140625 -3.921875 C 0.765625 -4.253906 0.578125 -4.710938 0.578125 -5.296875 C 0.578125 -5.703125 0.679688 -6.054688 0.890625 -6.359375 C 1.109375 -6.671875 1.40625 -6.910156 1.78125 -7.078125 C 2.15625 -7.242188 2.582031 -7.328125 3.0625 -7.328125 C 3.488281 -7.328125 3.890625 -7.253906 4.265625 -7.109375 C 4.648438 -6.972656 4.957031 -6.789062 5.1875 -6.5625 C 5.34375 -6.425781 5.421875 -6.28125 5.421875 -6.125 C 5.421875 -6 5.375 -5.890625 5.28125 -5.796875 C 5.1875 -5.703125 5.078125 -5.65625 4.953125 -5.65625 C 4.859375 -5.65625 4.78125 -5.679688 4.71875 -5.734375 C 4.53125 -5.910156 4.28125 -6.0625 3.96875 -6.1875 C 3.65625 -6.3125 3.351562 -6.375 3.0625 -6.375 C 2.601562 -6.375 2.238281 -6.28125 1.96875 -6.09375 C 1.695312 -5.90625 1.5625 -5.65625 1.5625 -5.34375 C 1.5625 -5.007812 1.695312 -4.75 1.96875 -4.5625 C 2.238281 -4.382812 2.640625 -4.234375 3.171875 -4.109375 C 3.710938 -3.992188 4.148438 -3.859375 4.484375 -3.703125 C 4.828125 -3.546875 5.09375 -3.328125 5.28125 -3.046875 C 5.46875 -2.765625 5.5625 -2.394531 5.5625 -1.9375 C 5.5625 -1.539062 5.445312 -1.1875 5.21875 -0.875 C 5 -0.5625 4.695312 -0.316406 4.3125 -0.140625 C 3.925781 0.0234375 3.503906 0.109375 3.046875 0.109375 Z M 3.046875 0.109375 "/></g></g></g><g fill="#000000" fill-opacity="1"><g transform="translate(150.175299, 224.841415)"><g><path d="M 5.46875 -2.90625 C 5.46875 -2.78125 5.414062 -2.675781 5.3125 -2.59375 C 5.21875 -2.507812 5.109375 -2.46875 4.984375 -2.46875 L 1.34375 -2.46875 C 1.394531 -1.96875 1.585938 -1.5625 1.921875 -1.25 C 2.253906 -0.945312 2.660156 -0.796875 3.140625 -0.796875 C 3.472656 -0.796875 3.742188 -0.84375 3.953125 -0.9375 C 4.160156 -1.039062 4.34375 -1.164062 4.5 -1.3125 C 4.601562 -1.375 4.703125 -1.40625 4.796875 -1.40625 C 4.910156 -1.40625 5.003906 -1.363281 5.078125 -1.28125 C 5.160156 -1.207031 5.203125 -1.113281 5.203125 -1 C 5.203125 -0.851562 5.132812 -0.722656 5 -0.609375 C 4.800781 -0.410156 4.535156 -0.238281 4.203125 -0.09375 C 3.878906 0.0390625 3.546875 0.109375 3.203125 0.109375 C 2.640625 0.109375 2.144531 -0.00390625 1.71875 -0.234375 C 1.300781 -0.472656 0.976562 -0.800781 0.75 -1.21875 C 0.519531 -1.644531 0.40625 -2.125 0.40625 -2.65625 C 0.40625 -3.226562 0.519531 -3.734375 0.75 -4.171875 C 0.988281 -4.609375 1.300781 -4.941406 1.6875 -5.171875 C 2.082031 -5.410156 2.503906 -5.53125 2.953125 -5.53125 C 3.390625 -5.53125 3.800781 -5.414062 4.1875 -5.1875 C 4.570312 -4.957031 4.878906 -4.644531 5.109375 -4.25 C 5.347656 -3.851562 5.46875 -3.40625 5.46875 -2.90625 Z M 2.953125 -4.625 C 2.566406 -4.625 2.234375 -4.515625 1.953125 -4.296875 C 1.671875 -4.078125 1.484375 -3.742188 1.390625 -3.296875 L 4.4375 -3.296875 L 4.4375 -3.375 C 4.40625 -3.738281 4.238281 -4.035156 3.9375 -4.265625 C 3.644531 -4.503906 3.316406 -4.625 2.953125 -4.625 Z M 2.953125 -4.625 "/></g></g></g><g fill="#000000" fill-opacity="1"><g transform="translate(157.366033, 224.841415)"><g><path d="M 5.109375 -5.46875 C 5.253906 -5.46875 5.375 -5.421875 5.46875 -5.328125 C 5.5625 -5.242188 5.609375 -5.125 5.609375 -4.96875 L 5.609375 -0.5 C 5.609375 -0.351562 5.5625 -0.234375 5.46875 -0.140625 C 5.375 -0.046875 5.253906 0 5.109375 0 C 4.972656 0 4.859375 -0.046875 4.765625 -0.140625 C 4.671875 -0.234375 4.625 -0.351562 4.625 -0.5 L 4.625 -0.765625 C 4.445312 -0.523438 4.203125 -0.316406 3.890625 -0.140625 C 3.585938 0.0234375 3.253906 0.109375 2.890625 0.109375 C 2.429688 0.109375 2.007812 -0.0078125 1.625 -0.25 C 1.238281 -0.5 0.9375 -0.835938 0.71875 -1.265625 C 0.507812 -1.691406 0.40625 -2.175781 0.40625 -2.71875 C 0.40625 -3.25 0.507812 -3.726562 0.71875 -4.15625 C 0.9375 -4.59375 1.234375 -4.929688 1.609375 -5.171875 C 1.992188 -5.410156 2.410156 -5.53125 2.859375 -5.53125 C 3.222656 -5.53125 3.5625 -5.453125 3.875 -5.296875 C 4.195312 -5.148438 4.445312 -4.957031 4.625 -4.71875 L 4.625 -4.96875 C 4.625 -5.113281 4.671875 -5.234375 4.765625 -5.328125 C 4.859375 -5.421875 4.972656 -5.46875 5.109375 -5.46875 Z M 3.015625 -0.796875 C 3.335938 -0.796875 3.625 -0.878906 3.875 -1.046875 C 4.125 -1.210938 4.316406 -1.441406 4.453125 -1.734375 C 4.597656 -2.023438 4.671875 -2.351562 4.671875 -2.71875 C 4.671875 -3.070312 4.597656 -3.390625 4.453125 -3.671875 C 4.316406 -3.960938 4.125 -4.191406 3.875 -4.359375 C 3.625 -4.535156 3.335938 -4.625 3.015625 -4.625 C 2.691406 -4.625 2.40625 -4.539062 2.15625 -4.375 C 1.90625 -4.207031 1.707031 -3.976562 1.5625 -3.6875 C 1.414062 -3.40625 1.34375 -3.082031 1.34375 -2.71875 C 1.34375 -2.351562 1.414062 -2.023438 1.5625 -1.734375 C 1.707031 -1.441406 1.90625 -1.210938 2.15625 -1.046875 C 2.40625 -0.878906 2.691406 -0.796875 3.015625 -0.796875 Z M 3.015625 -0.796875 "/></g></g></g><g fill="#000000" fill-opacity="1"><g transform="translate(165.010009, 224.841415)"><g><path d="M 3.421875 -5.53125 C 3.597656 -5.53125 3.75 -5.484375 3.875 -5.390625 C 4.007812 -5.296875 4.078125 -5.179688 4.078125 -5.046875 C 4.078125 -4.878906 4.035156 -4.75 3.953125 -4.65625 C 3.867188 -4.570312 3.765625 -4.53125 3.640625 -4.53125 C 3.578125 -4.53125 3.484375 -4.550781 3.359375 -4.59375 C 3.210938 -4.644531 3.097656 -4.671875 3.015625 -4.671875 C 2.804688 -4.671875 2.597656 -4.597656 2.390625 -4.453125 C 2.191406 -4.304688 2.03125 -4.101562 1.90625 -3.84375 C 1.78125 -3.582031 1.71875 -3.296875 1.71875 -2.984375 L 1.71875 -0.5 C 1.71875 -0.351562 1.671875 -0.234375 1.578125 -0.140625 C 1.484375 -0.046875 1.363281 0 1.21875 0 C 1.070312 0 0.953125 -0.046875 0.859375 -0.140625 C 0.773438 -0.234375 0.734375 -0.351562 0.734375 -0.5 L 0.734375 -4.90625 C 0.734375 -5.039062 0.78125 -5.15625 0.875 -5.25 C 0.96875 -5.351562 1.082031 -5.40625 1.21875 -5.40625 C 1.363281 -5.40625 1.484375 -5.351562 1.578125 -5.25 C 1.671875 -5.15625 1.71875 -5.039062 1.71875 -4.90625 L 1.71875 -4.390625 C 1.863281 -4.722656 2.085938 -4.992188 2.390625 -5.203125 C 2.691406 -5.410156 3.035156 -5.519531 3.421875 -5.53125 Z M 3.421875 -5.53125 "/></g></g></g><g fill="#000000" fill-opacity="1"><g transform="translate(170.583533, 224.841415)"><g><path d="M 3.078125 -5.53125 C 3.617188 -5.53125 4.070312 -5.441406 4.4375 -5.265625 C 4.800781 -5.097656 4.984375 -4.878906 4.984375 -4.609375 C 4.984375 -4.492188 4.941406 -4.390625 4.859375 -4.296875 C 4.785156 -4.203125 4.691406 -4.15625 4.578125 -4.15625 C 4.484375 -4.15625 4.410156 -4.164062 4.359375 -4.1875 C 4.316406 -4.21875 4.25 -4.265625 4.15625 -4.328125 C 4.113281 -4.367188 4.046875 -4.414062 3.953125 -4.46875 C 3.878906 -4.507812 3.765625 -4.546875 3.609375 -4.578125 C 3.453125 -4.609375 3.316406 -4.625 3.203125 -4.625 C 2.835938 -4.625 2.515625 -4.539062 2.234375 -4.375 C 1.960938 -4.207031 1.75 -3.976562 1.59375 -3.6875 C 1.445312 -3.394531 1.375 -3.070312 1.375 -2.71875 C 1.375 -2.351562 1.445312 -2.023438 1.59375 -1.734375 C 1.75 -1.441406 1.957031 -1.210938 2.21875 -1.046875 C 2.488281 -0.878906 2.796875 -0.796875 3.140625 -0.796875 C 3.503906 -0.796875 3.796875 -0.851562 4.015625 -0.96875 C 4.054688 -1 4.117188 -1.046875 4.203125 -1.109375 C 4.273438 -1.160156 4.335938 -1.195312 4.390625 -1.21875 C 4.441406 -1.25 4.503906 -1.265625 4.578125 -1.265625 C 4.710938 -1.265625 4.816406 -1.222656 4.890625 -1.140625 C 4.972656 -1.054688 5.015625 -0.941406 5.015625 -0.796875 C 5.015625 -0.660156 4.921875 -0.519531 4.734375 -0.375 C 4.554688 -0.238281 4.316406 -0.125 4.015625 -0.03125 C 3.710938 0.0625 3.382812 0.109375 3.03125 0.109375 C 2.507812 0.109375 2.046875 -0.0078125 1.640625 -0.25 C 1.242188 -0.5 0.9375 -0.835938 0.71875 -1.265625 C 0.507812 -1.703125 0.40625 -2.1875 0.40625 -2.71875 C 0.40625 -3.238281 0.515625 -3.710938 0.734375 -4.140625 C 0.960938 -4.578125 1.28125 -4.914062 1.6875 -5.15625 C 2.09375 -5.40625 2.554688 -5.53125 3.078125 -5.53125 Z M 3.078125 -5.53125 "/></g></g></g><g fill="#000000" fill-opacity="1"><g transform="translate(177.197428, 224.841415)"><g><path d="M 3.421875 -5.5 C 4.628906 -5.5 5.234375 -4.75 5.234375 -3.25 L 5.234375 -0.5 C 5.234375 -0.351562 5.1875 -0.234375 5.09375 -0.140625 C 5 -0.046875 4.882812 0 4.75 0 C 4.601562 0 4.484375 -0.046875 4.390625 -0.140625 C 4.304688 -0.234375 4.265625 -0.351562 4.265625 -0.5 L 4.265625 -3.25 C 4.265625 -4.144531 3.882812 -4.59375 3.125 -4.59375 C 2.71875 -4.59375 2.378906 -4.460938 2.109375 -4.203125 C 1.847656 -3.941406 1.71875 -3.625 1.71875 -3.25 L 1.71875 -0.5 C 1.71875 -0.351562 1.671875 -0.234375 1.578125 -0.140625 C 1.484375 -0.046875 1.363281 0 1.21875 0 C 1.070312 0 0.953125 -0.046875 0.859375 -0.140625 C 0.773438 -0.234375 0.734375 -0.351562 0.734375 -0.5 L 0.734375 -7.140625 C 0.734375 -7.273438 0.78125 -7.390625 0.875 -7.484375 C 0.96875 -7.578125 1.082031 -7.625 1.21875 -7.625 C 1.363281 -7.625 1.484375 -7.578125 1.578125 -7.484375 C 1.671875 -7.390625 1.71875 -7.273438 1.71875 -7.140625 L 1.71875 -4.53125 C 1.882812 -4.789062 2.117188 -5.015625 2.421875 -5.203125 C 2.734375 -5.398438 3.066406 -5.5 3.421875 -5.5 Z M 3.421875 -5.5 "/></g></g></g><g fill="#000000" fill-opacity="1"><g transform="translate(184.480871, 224.841415)"><g/></g></g><g fill="#000000" fill-opacity="1"><g transform="translate(188.65349, 224.841415)"><g><path d="M 4.9375 -0.953125 C 5.082031 -0.953125 5.203125 -0.898438 5.296875 -0.796875 C 5.390625 -0.703125 5.4375 -0.59375 5.4375 -0.46875 C 5.4375 -0.332031 5.390625 -0.21875 5.296875 -0.125 C 5.203125 -0.0390625 5.082031 0 4.9375 0 L 1.34375 0 C 1.207031 0 1.09375 -0.046875 1 -0.140625 C 0.90625 -0.234375 0.859375 -0.351562 0.859375 -0.5 L 0.859375 -6.71875 C 0.859375 -6.863281 0.90625 -6.984375 1 -7.078125 C 1.09375 -7.171875 1.207031 -7.21875 1.34375 -7.21875 L 4.9375 -7.21875 C 5.082031 -7.21875 5.203125 -7.171875 5.296875 -7.078125 C 5.390625 -6.992188 5.4375 -6.878906 5.4375 -6.734375 C 5.4375 -6.597656 5.390625 -6.484375 5.296875 -6.390625 C 5.203125 -6.304688 5.082031 -6.265625 4.9375 -6.265625 L 1.875 -6.265625 L 1.875 -4.171875 L 4.46875 -4.171875 C 4.613281 -4.171875 4.734375 -4.125 4.828125 -4.03125 C 4.921875 -3.9375 4.96875 -3.820312 4.96875 -3.6875 C 4.96875 -3.539062 4.921875 -3.425781 4.828125 -3.34375 C 4.734375 -3.269531 4.613281 -3.234375 4.46875 -3.234375 L 1.875 -3.234375 L 1.875 -0.953125 Z M 4.9375 -0.953125 "/></g></g></g><g fill="#000000" fill-opacity="1"><g transform="translate(195.844221, 224.841415)"><g><path d="M 3.484375 -5.53125 C 4.722656 -5.53125 5.34375 -4.785156 5.34375 -3.296875 L 5.34375 -0.5 C 5.34375 -0.351562 5.296875 -0.234375 5.203125 -0.140625 C 5.109375 -0.046875 4.988281 0 4.84375 0 C 4.707031 0 4.59375 -0.046875 4.5 -0.140625 C 4.40625 -0.234375 4.359375 -0.351562 4.359375 -0.5 L 4.359375 -3.296875 C 4.359375 -3.691406 4.265625 -4.007812 4.078125 -4.25 C 3.898438 -4.5 3.597656 -4.625 3.171875 -4.625 C 2.898438 -4.625 2.648438 -4.5625 2.421875 -4.4375 C 2.203125 -4.320312 2.03125 -4.160156 1.90625 -3.953125 C 1.78125 -3.753906 1.71875 -3.535156 1.71875 -3.296875 L 1.71875 -0.5 C 1.71875 -0.351562 1.671875 -0.234375 1.578125 -0.140625 C 1.484375 -0.046875 1.363281 0 1.21875 0 C 1.070312 0 0.953125 -0.046875 0.859375 -0.140625 C 0.773438 -0.234375 0.734375 -0.351562 0.734375 -0.5 L 0.734375 -4.90625 C 0.734375 -5.039062 0.78125 -5.15625 0.875 -5.25 C 0.96875 -5.351562 1.082031 -5.40625 1.21875 -5.40625 C 1.363281 -5.40625 1.484375 -5.351562 1.578125 -5.25 C 1.671875 -5.15625 1.71875 -5.039062 1.71875 -4.90625 L 1.71875 -4.546875 C 1.894531 -4.816406 2.140625 -5.046875 2.453125 -5.234375 C 2.773438 -5.429688 3.117188 -5.53125 3.484375 -5.53125 Z M 3.484375 -5.53125 "/></g></g></g><g fill="#000000" fill-opacity="1"><g transform="translate(203.230673, 224.841415)"><g><path d="M 5.25 -5.46875 C 5.394531 -5.46875 5.515625 -5.421875 5.609375 -5.328125 C 5.703125 -5.242188 5.75 -5.125 5.75 -4.96875 L 5.75 -0.4375 C 5.75 0.125 5.628906 0.59375 5.390625 0.96875 C 5.148438 1.34375 4.828125 1.617188 4.421875 1.796875 C 4.015625 1.972656 3.554688 2.0625 3.046875 2.0625 C 2.773438 2.0625 2.453125 2.015625 2.078125 1.921875 C 1.710938 1.828125 1.476562 1.726562 1.375 1.625 C 1.164062 1.507812 1.0625 1.367188 1.0625 1.203125 C 1.0625 1.160156 1.078125 1.109375 1.109375 1.046875 C 1.179688 0.867188 1.304688 0.78125 1.484375 0.78125 C 1.578125 0.78125 1.675781 0.800781 1.78125 0.84375 C 2.320312 1.0625 2.75 1.171875 3.0625 1.171875 C 3.613281 1.171875 4.035156 1.035156 4.328125 0.765625 C 4.617188 0.503906 4.765625 0.144531 4.765625 -0.3125 L 4.765625 -0.875 C 4.617188 -0.601562 4.375 -0.367188 4.03125 -0.171875 C 3.695312 0.015625 3.335938 0.109375 2.953125 0.109375 C 2.484375 0.109375 2.050781 -0.0078125 1.65625 -0.25 C 1.269531 -0.5 0.960938 -0.835938 0.734375 -1.265625 C 0.515625 -1.691406 0.40625 -2.175781 0.40625 -2.71875 C 0.40625 -3.25 0.515625 -3.726562 0.734375 -4.15625 C 0.960938 -4.59375 1.269531 -4.929688 1.65625 -5.171875 C 2.039062 -5.410156 2.46875 -5.53125 2.9375 -5.53125 C 3.3125 -5.53125 3.660156 -5.441406 3.984375 -5.265625 C 4.316406 -5.097656 4.578125 -4.890625 4.765625 -4.640625 L 4.765625 -4.96875 C 4.765625 -5.113281 4.804688 -5.234375 4.890625 -5.328125 C 4.984375 -5.421875 5.101562 -5.46875 5.25 -5.46875 Z M 3.078125 -0.796875 C 3.410156 -0.796875 3.707031 -0.878906 3.96875 -1.046875 C 4.226562 -1.210938 4.429688 -1.441406 4.578125 -1.734375 C 4.734375 -2.023438 4.8125 -2.351562 4.8125 -2.71875 C 4.8125 -3.082031 4.734375 -3.40625 4.578125 -3.6875 C 4.429688 -3.976562 4.226562 -4.207031 3.96875 -4.375 C 3.707031 -4.539062 3.410156 -4.625 3.078125 -4.625 C 2.742188 -4.625 2.445312 -4.539062 2.1875 -4.375 C 1.925781 -4.207031 1.71875 -3.976562 1.5625 -3.6875 C 1.414062 -3.394531 1.34375 -3.070312 1.34375 -2.71875 C 1.34375 -2.351562 1.414062 -2.023438 1.5625 -1.734375 C 1.71875 -1.441406 1.925781 -1.210938 2.1875 -1.046875 C 2.445312 -0.878906 2.742188 -0.796875 3.078125 -0.796875 Z M 3.078125 -0.796875 "/></g></g></g><g fill="#000000" fill-opacity="1"><g transform="translate(211.008557, 224.841415)"><g><path d="M 1.65625 -0.5 C 1.65625 -0.351562 1.609375 -0.234375 1.515625 -0.140625 C 1.421875 -0.046875 1.304688 0 1.171875 0 C 1.023438 0 0.90625 -0.046875 0.8125 -0.140625 C 0.726562 -0.234375 0.6875 -0.351562 0.6875 -0.5 L 0.6875 -4.953125 C 0.6875 -5.097656 0.726562 -5.21875 0.8125 -5.3125 C 0.90625 -5.40625 1.023438 -5.453125 1.171875 -5.453125 C 1.304688 -5.453125 1.421875 -5.40625 1.515625 -5.3125 C 1.609375 -5.21875 1.65625 -5.097656 1.65625 -4.953125 Z M 1.15625 -6.140625 C 0.957031 -6.140625 0.816406 -6.175781 0.734375 -6.25 C 0.648438 -6.320312 0.609375 -6.4375 0.609375 -6.59375 L 0.609375 -6.75 C 0.609375 -6.914062 0.65625 -7.03125 0.75 -7.09375 C 0.84375 -7.164062 0.984375 -7.203125 1.171875 -7.203125 C 1.359375 -7.203125 1.492188 -7.164062 1.578125 -7.09375 C 1.671875 -7.019531 1.71875 -6.90625 1.71875 -6.75 L 1.71875 -6.59375 C 1.71875 -6.425781 1.671875 -6.304688 1.578125 -6.234375 C 1.492188 -6.171875 1.351562 -6.140625 1.15625 -6.140625 Z M 1.15625 -6.140625 "/></g></g></g><g fill="#000000" fill-opacity="1"><g transform="translate(214.666135, 224.841415)"><g><path d="M 3.484375 -5.53125 C 4.722656 -5.53125 5.34375 -4.785156 5.34375 -3.296875 L 5.34375 -0.5 C 5.34375 -0.351562 5.296875 -0.234375 5.203125 -0.140625 C 5.109375 -0.046875 4.988281 0 4.84375 0 C 4.707031 0 4.59375 -0.046875 4.5 -0.140625 C 4.40625 -0.234375 4.359375 -0.351562 4.359375 -0.5 L 4.359375 -3.296875 C 4.359375 -3.691406 4.265625 -4.007812 4.078125 -4.25 C 3.898438 -4.5 3.597656 -4.625 3.171875 -4.625 C 2.898438 -4.625 2.648438 -4.5625 2.421875 -4.4375 C 2.203125 -4.320312 2.03125 -4.160156 1.90625 -3.953125 C 1.78125 -3.753906 1.71875 -3.535156 1.71875 -3.296875 L 1.71875 -0.5 C 1.71875 -0.351562 1.671875 -0.234375 1.578125 -0.140625 C 1.484375 -0.046875 1.363281 0 1.21875 0 C 1.070312 0 0.953125 -0.046875 0.859375 -0.140625 C 0.773438 -0.234375 0.734375 -0.351562 0.734375 -0.5 L 0.734375 -4.90625 C 0.734375 -5.039062 0.78125 -5.15625 0.875 -5.25 C 0.96875 -5.351562 1.082031 -5.40625 1.21875 -5.40625 C 1.363281 -5.40625 1.484375 -5.351562 1.578125 -5.25 C 1.671875 -5.15625 1.71875 -5.039062 1.71875 -4.90625 L 1.71875 -4.546875 C 1.894531 -4.816406 2.140625 -5.046875 2.453125 -5.234375 C 2.773438 -5.429688 3.117188 -5.53125 3.484375 -5.53125 Z M 3.484375 -5.53125 "/></g></g></g><g fill="#000000" fill-opacity="1"><g transform="translate(222.052586, 224.841415)"><g><path d="M 5.46875 -2.90625 C 5.46875 -2.78125 5.414062 -2.675781 5.3125 -2.59375 C 5.21875 -2.507812 5.109375 -2.46875 4.984375 -2.46875 L 1.34375 -2.46875 C 1.394531 -1.96875 1.585938 -1.5625 1.921875 -1.25 C 2.253906 -0.945312 2.660156 -0.796875 3.140625 -0.796875 C 3.472656 -0.796875 3.742188 -0.84375 3.953125 -0.9375 C 4.160156 -1.039062 4.34375 -1.164062 4.5 -1.3125 C 4.601562 -1.375 4.703125 -1.40625 4.796875 -1.40625 C 4.910156 -1.40625 5.003906 -1.363281 5.078125 -1.28125 C 5.160156 -1.207031 5.203125 -1.113281 5.203125 -1 C 5.203125 -0.851562 5.132812 -0.722656 5 -0.609375 C 4.800781 -0.410156 4.535156 -0.238281 4.203125 -0.09375 C 3.878906 0.0390625 3.546875 0.109375 3.203125 0.109375 C 2.640625 0.109375 2.144531 -0.00390625 1.71875 -0.234375 C 1.300781 -0.472656 0.976562 -0.800781 0.75 -1.21875 C 0.519531 -1.644531 0.40625 -2.125 0.40625 -2.65625 C 0.40625 -3.226562 0.519531 -3.734375 0.75 -4.171875 C 0.988281 -4.609375 1.300781 -4.941406 1.6875 -5.171875 C 2.082031 -5.410156 2.503906 -5.53125 2.953125 -5.53125 C 3.390625 -5.53125 3.800781 -5.414062 4.1875 -5.1875 C 4.570312 -4.957031 4.878906 -4.644531 5.109375 -4.25 C 5.347656 -3.851562 5.46875 -3.40625 5.46875 -2.90625 Z M 2.953125 -4.625 C 2.566406 -4.625 2.234375 -4.515625 1.953125 -4.296875 C 1.671875 -4.078125 1.484375 -3.742188 1.390625 -3.296875 L 4.4375 -3.296875 L 4.4375 -3.375 C 4.40625 -3.738281 4.238281 -4.035156 3.9375 -4.265625 C 3.644531 -4.503906 3.316406 -4.625 2.953125 -4.625 Z M 2.953125 -4.625 "/></g></g></g><g fill="#000000" fill-opacity="1"><g transform="translate(229.251566, 224.841415)"><g/></g></g></svg>